normalP052_grf.mot
version=1
nRows=15
nColumns=19
inDegrees=yes
endheader
time	1_ground_force_vx	1_ground_force_vy	1_ground_force_vz	1_ground_force_px	1_ground_force_py	1_ground_force_pz	1_ground_torque_x	1_ground_torque_y	1_ground_torque_z	2_ground_force_vx	2_ground_force_vy	2_ground_force_vz	2_ground_force_px	2_ground_force_py	2_ground_force_pz	2_ground_torque_x	2_ground_torque_y	2_ground_torque_z
            1.695000	           -9.937115	          566.107696	          -19.271308	            0.303313	            0.002478	           -0.198017	           -0.064432	            3.670621	           -0.124954	            0.005889	            0.159274	            0.012012	            0.865277	            0.000723	           -0.284906	           -0.038925	           -0.003792	            0.049337
            1.696000	           -9.562781	          569.294862	          -18.559198	            0.303154	            0.002479	           -0.198247	           -0.063801	            3.798246	           -0.123824	            0.012536	           -0.080672	            0.003471	            0.865277	            0.000723	           -0.284906	           -0.022273	           -0.005998	            0.111851
            1.697000	           -9.091315	          572.000951	          -17.947796	            0.303433	            0.002479	           -0.198781	           -0.062063	            3.904855	           -0.122523	            0.013495	            0.160608	           -0.011188	            0.865277	            0.000723	           -0.284906	            0.028117	            0.004121	           -0.116777
            1.698000	           -8.581992	          574.628621	          -17.336592	            0.303530	            0.002479	           -0.198808	           -0.060055	            4.021129	           -0.121318	           -0.024877	            0.159777	            0.011804	            0.865277	            0.000723	           -0.284906	           -0.038977	            0.009453	           -0.033611
            1.699000	           -8.034437	          578.851797	          -16.683459	            0.303616	            0.002479	           -0.199145	           -0.057160	            4.118169	           -0.118692	           -0.009547	            0.158983	            0.004026	            0.865277	            0.000723	           -0.284906	           -0.038949	            0.002953	            0.132627
            1.700000	           -7.551477	          582.356655	          -15.886473	            0.303526	            0.002481	           -0.199676	           -0.054852	            4.230111	           -0.115396	            0.013100	            0.079476	            0.034261	            0.865277	            0.000723	           -0.284906	           -0.022201	           -0.005500	            0.028604
            1.701000	           -7.016729	          585.462220	          -15.136362	            0.303755	            0.002480	           -0.199622	           -0.051890	            4.329595	           -0.111936	           -0.009290	            0.240768	           -0.042188	            0.865277	            0.000723	           -0.284906	            0.044895	           -0.001421	           -0.096006
            1.702000	           -6.658008	          588.570299	          -14.439805	            0.303772	            0.002480	           -0.199855	           -0.050200	            4.437659	           -0.108872	            0.014350	            0.398872	           -0.011028	            0.865277	            0.000723	           -0.284906	           -0.055691	            0.002579	            0.070247
            1.703000	           -6.251396	          592.075036	          -13.711687	            0.303612	            0.002482	           -0.200373	           -0.047949	            4.541304	           -0.105171	           -0.033986	           -0.160324	           -0.005014	            0.865277	            0.000723	           -0.284906	           -0.072657	            0.007290	            0.008056
            1.704000	           -5.873555	          595.977569	          -12.990370	            0.304042	            0.002481	           -0.200721	           -0.045612	            4.628125	           -0.100878	           -0.032336	            0.239095	           -0.003937	            0.865277	            0.000723	           -0.284906	           -0.089386	           -0.000698	            0.028804
            1.705000	           -5.473049	          599.802228	          -12.284496	            0.304017	            0.002481	           -0.200807	           -0.043132	            4.726951	           -0.096812	            0.028280	            0.080221	           -0.019860	            0.865277	            0.000723	           -0.284906	            0.011306	            0.014434	           -0.054264
            1.706000	           -5.032050	          604.106618	          -11.684717	            0.303923	            0.002483	           -0.201260	           -0.040143	            4.819270	           -0.093215	           -0.031715	            0.399876	           -0.003514	            0.865277	            0.000723	           -0.284906	           -0.022216	            0.008155	           -0.054299
            1.707000	           -4.581547	          607.212682	          -11.225591	            0.304008	            0.002483	           -0.201476	           -0.037019	            4.906323	           -0.090704	            0.029613	            0.399626	           -0.011305	            0.865277	            0.000723	           -0.284906	            0.044993	            0.004715	            0.070291
            1.708000	           -4.080131	          611.356860	          -10.679814	            0.304051	            0.002483	           -0.201523	           -0.033338	            4.995311	           -0.087263	            0.013582	            0.239706	           -0.019655	            0.865277	            0.000723	           -0.284906	           -0.089431	            0.001552	           -0.137447
            1.709000	           -3.705735	          614.541454	           -9.868289	            0.304298	            0.002482	           -0.201824	           -0.030722	            5.094713	           -0.081811	            0.007245	            0.557963	            0.011991	            0.865277	            0.000723	           -0.284906	           -0.122871	           -0.004629	            0.111904
